# xmcd
#
# Track frame offsets: 
#        150
#        17320
#        36787
#        53697
#        65322
#        85170
#        104067
#        120320
#        134860
#        153255
#        172472
#        186037
#        198710
#        215062
#
# Disc length: 3037 seconds
#
# Revision: 1
# Processed by: cddbd v1.5.2PL0 Copyright (c) Steve Scherf et al.
# Submitted via: ExactAudioCopy v0.95b1
#
DISCID=ca0bdb0e
DTITLE=David Nevue - Emmanuel
DYEAR=2003
DGENRE=New Age
TTITLE0=O Come, O Come, Emmanuel
TTITLE1=Away In A Manger
TTITLE2=Watching Their Flocks
TTITLE3=Joy To The World
TTITLE4=Angels We have Heard On High
TTITLE5=Silent Night
TTITLE6=Lo, How A Rose E'er Blooming
TTITLE7=Come, Thou Long Expected Jesus
TTITLE8=Coventry Carol
TTITLE9=We Three Kings
TTITLE10=The Gift
TTITLE11=Some Children See Him
TTITLE12=God Rest Ye Merry Gentlemen
TTITLE13=O Come, O Come, Emmanuel
EXTD=YEAR: 2003
EXTT0=
EXTT1=
EXTT2=
EXTT3=
EXTT4=
EXTT5=
EXTT6=
EXTT7=
EXTT8=
EXTT9=
EXTT10=
EXTT11=
EXTT12=
EXTT13=
PLAYORDER=
